<svg id="visual" viewBox="0 0 900 600" width="900" height="600" xmlns="http://www.w3.org/2000/svg" xmlns:xlink="http://www.w3.org/1999/xlink" version="1.1"><rect x="0" y="0" width="900" height="600" fill="#822213"></rect><path d="M0 156L18.8 171.8C37.7 187.7 75.3 219.3 112.8 220.3C150.3 221.3 187.7 191.7 225.2 187.2C262.7 182.7 300.3 203.3 337.8 212.3C375.3 221.3 412.7 218.7 450.2 215.7C487.7 212.7 525.3 209.3 562.8 195.8C600.3 182.3 637.7 158.7 675.2 175.3C712.7 192 750.3 249 787.8 275.2C825.3 301.3 862.7 296.7 881.3 294.3L900 292L900 0L881.3 0C862.7 0 825.3 0 787.8 0C750.3 0 712.7 0 675.2 0C637.7 0 600.3 0 562.8 0C525.3 0 487.7 0 450.2 0C412.7 0 375.3 0 337.8 0C300.3 0 262.7 0 225.2 0C187.7 0 150.3 0 112.8 0C75.3 0 37.7 0 18.8 0L0 0Z" fill="#ca4f15" stroke-linecap="round" stroke-linejoin="miter"></path></svg>